<?xml version="1.0" encoding="utf-8"?>
<!-- Generator: Adobe Illustrator 26.2.1, SVG Export Plug-In . SVG Version: 6.00 Build 0)  -->
<svg version="1.1" id="Layer_1" xmlns="http://www.w3.org/2000/svg" xmlns:xlink="http://www.w3.org/1999/xlink" x="0px" y="0px"
	 viewBox="0 0 1920 1080" style="enable-background:new 0 0 1920 1080;" xml:space="preserve">
<style type="text/css">
	.st0{clip-path:url(#SVGID_00000046321721194356567500000006694409606577294009_);fill:#013358;}
	.st1{clip-path:url(#SVGID_00000046321721194356567500000006694409606577294009_);fill:#587574;}
	.st2{clip-path:url(#SVGID_00000046321721194356567500000006694409606577294009_);fill:#037177;}
	.st3{clip-path:url(#SVGID_00000046321721194356567500000006694409606577294009_);fill:#91CCCE;}
	.st4{clip-path:url(#SVGID_00000046321721194356567500000006694409606577294009_);fill:#2F838E;}
	.st5{clip-path:url(#SVGID_00000046321721194356567500000006694409606577294009_);}
	.st6{fill:#D8D8D8;}
	.st7{fill:#587574;}
	.st8{fill:#2F838E;}
	.st9{fill:#91CCCE;}
	.st10{fill:#037177;}
</style>
<g>
	<defs>
		<rect id="SVGID_1_" width="1920" height="1080"/>
	</defs>
	<clipPath id="SVGID_00000093862875204210008320000008926586709944727953_">
		<use xlink:href="#SVGID_1_"  style="overflow:visible;"/>
	</clipPath>
	
		<rect style="clip-path:url(#SVGID_00000093862875204210008320000008926586709944727953_);fill:#013358;" width="1920" height="1080"/>
	<path style="clip-path:url(#SVGID_00000093862875204210008320000008926586709944727953_);fill:#587574;" d="M1921.7,1080.4
		l-1602.3,4.8c4.9-45.7,16.3-90.8,33-133.5c39-99.7,117-194.8,222.8-209.9c45.6-6.5,90.5,2.3,133.9,18.5
		c62.2,23.1,131.9,4.3,174.6-46.6c30.1-35.9,68.9-64.6,112.4-81.9c80.6-32,176-24.2,250.3,20.5c22.1,13.3,42.3,29.5,61.8,46.8
		c55.6,49.1,105.5,106.5,175.4,127.8c72.8,22.1,130-2.9,226.8,14.8C1807.3,859.3,1886.4,959.9,1921.7,1080.4z"/>
	<path style="clip-path:url(#SVGID_00000093862875204210008320000008926586709944727953_);fill:#037177;" d="M1917.6,1079.9H340.7
		c4.7-44.5,15.9-88.4,32.2-130c38-97.1,114.1-189.6,217.3-204.4c44.5-6.4,88.3,2.3,130.6,18c60.7,22.5,128.7,4.2,170.3-45.4
		c29.4-34.9,67.2-62.9,109.7-79.7c78.7-31.2,171.7-23.6,244.2,20c21.5,12.9,41.2,28.7,60.3,45.5c54.2,47.8,102.9,103.6,171.1,124.4
		c71,21.5,148.5-0.1,221.2,14.4c106.6,21.3,184.9,118.6,215.9,222.8C1915,1070.3,1916.4,1075.1,1917.6,1079.9z"/>
	<path style="clip-path:url(#SVGID_00000093862875204210008320000008926586709944727953_);fill:#587574;" d="M294.3,1031.4
		c23.2-31.3,58.6-51.2,94.2-67.3c35.5-16.1,72.7-29.6,104.6-52c52.2-36.6,86.9-97.1,91.8-160.4c4.9-63.3-20.5-128.1-67.1-170.8
		c-29.5-27-67-45.8-90.9-77.9c-24.6-32.9-31.5-75.4-48.1-113c-39.4-89.2-137.6-146.7-235.6-144.8c-98,1.9-191.8,59.8-243.9,142.9
		s-63.7,188.6-38,282.8c25.6,94.2,86.6,176.9,164.4,235.8c38.2,28.9,80.3,52.4,117.1,83s68.8,70.2,77.4,117.4l63.7,33.4
		C262.9,1107.9,271.1,1062.7,294.3,1031.4z"/>
	<path style="clip-path:url(#SVGID_00000093862875204210008320000008926586709944727953_);fill:#91CCCE;" d="M292.8,1028.2
		c22.9-31,57.8-50.6,93-66.5c35.1-15.9,71.8-29.1,103.4-51.2c51.5-36.2,85.7-96,90.3-158.8c4.6-62.8-20.7-127.1-67-169.7
		c-29.3-26.9-66.5-45.6-90.3-77.5c-24.4-32.8-31.4-75-47.9-112.3c-39.3-88.7-136.6-146-233.6-144.5c-97,1.6-189.6,58.7-240.9,141
		s-62.4,186.9-36.7,280.4c25.7,93.5,86.3,175.8,163.5,234.5c37.9,28.8,79.7,52.3,116.2,82.7c36.5,30.5,68.4,69.9,77,116.7l63.2,33.4
		C262,1104,269.9,1059.2,292.8,1028.2z"/>
	<path style="clip-path:url(#SVGID_00000093862875204210008320000008926586709944727953_);fill:#587574;" d="M-3.1,581.3V1080
		h1053.7c-3-18.1-8.8-39.4-19.8-62.1c-32.9-68.5-104.2-128.5-194.5-165.3c-47.8-19.4-100.9-32.4-156.5-36.6
		c-72.4-5.5-154,1.1-209.8-30.7c-33.6-19.2-49.9-48.5-70.8-74.7C339.7,636,227.5,578.9,103.1,572.9C67.4,571.2,31.2,574.2-3.1,581.3
		z"/>
	<path style="clip-path:url(#SVGID_00000093862875204210008320000008926586709944727953_);fill:#2F838E;" d="M0,585.2L0,1080h1045.4
		c-3.5-20.9-9.9-41.5-19.6-61.6c-32.6-68-103.3-127.5-193-164c-47.4-19.3-100.1-32.1-155.2-36.3c-71.8-5.5-152.8,1.1-208.1-30.5
		c-33.3-19-49.5-48.1-70.2-74.1c-59.1-74-170.4-130.7-293.8-136.7C70,575.2,34.1,578.2,0,585.2z"/>
	<g style="clip-path:url(#SVGID_00000093862875204210008320000008926586709944727953_);">
		<g>
			<path class="st6" d="M783.2,1087c40-172-15.1-309.7-132.6-329.4c-56.9-10.2-113,6.7-169.4,13.1c-71.9,8.3-123.4-6.8-162.2-47.4
				c-64.9-69-85.4-199.2-143.6-278.5c-48.7-66.7-123.1-88.9-184.9-55.2l1.1,4.7c60.7-33,133.7-11.2,181.6,54.2
				c58.1,79.6,78.6,209.8,143.9,278.9c39.4,41.3,91.6,56.6,164.3,48.3c56.1-6.4,112.3-23.3,168.7-13.1
				C765.5,781.8,819.5,917,780,1085.7L783.2,1087z"/>
		</g>
		<g>
			<path class="st6" d="M740.5,1087c37.9-162.7-14.3-293.1-125.5-311.7c-53.8-9.6-106.9,6.3-160.3,12.4
				c-68,7.8-116.7-6.4-153.4-44.8c-61.4-65.2-80.8-188.4-135.8-263.4c-46.1-63.1-116.5-84.1-175-52.3l1.1,4.7
				C49,400.7,118,421.3,163.2,483.2c55,75.3,74.3,198.4,136.2,263.8c37.3,39.1,86.7,53.6,155.5,45.7c53.1-6.1,106.2-22,159.6-12.4
				c109,18.1,160.1,145.9,122.7,305.4L740.5,1087z"/>
		</g>
		<g>
			<path class="st6" d="M697.8,1087c35.7-153.5-13.6-276.5-118.5-294.1c-50.8-9.1-100.8,5.9-151.1,11.7c-64.1,7.4-110-6-144.6-42.2
				c-57.9-61.5-76.2-177.6-128.1-248.4C112,454.5,45.7,434.7-9.6,464.7l1.1,4.7c54.1-29.4,119.1-10,161.8,48.3
				c51.8,71,70.1,187.1,128.4,248.8c35.2,36.9,81.8,50.6,146.7,43.1c50.1-5.7,100.1-20.7,150.5-11.7
				c102.8,17,150.9,137.5,115.6,287.8L697.8,1087z"/>
		</g>
		<g>
			<path class="st6" d="M655.1,1087c33.6-144.3-12.8-260-111.4-276.5c-47.7-8.6-94.7,5.6-142,11c-60.2,6.9-103.3-5.7-135.7-39.6
				c-54.4-57.8-71.5-166.9-120.3-233.3c-40.9-56-103.3-74.6-155.2-46.4l1.1,4.7c50.8-27.6,111.8-9.4,151.9,45.4
				C192.1,619,209.3,728.1,264.1,786c33.1,34.6,76.9,47.5,137.9,40.5c47-5.4,94-19.5,141.3-11c96.5,16,141.6,129.1,108.6,270.2
				L655.1,1087z"/>
		</g>
		<g>
			<path class="st6" d="M612.4,1087c31.4-135.1-12-243.4-104.3-258.9c-44.6-8-88.6,5.2-132.9,10.3c-56.3,6.5-96.6-5.3-126.9-37.1
				c-50.9-54.1-66.9-156.1-112.5-218.3c-38.3-52.4-96.7-69.8-145.3-43.4l1.1,4.7c47.5-25.8,104.6-8.8,142,42.4
				c45.5,62.4,61.6,164.5,112.9,218.7c31,32.4,72,44.5,129.1,37.9c124.8-29.9,283.6-20.3,233.7,242.3L612.4,1087z"/>
		</g>
	</g>
	<g style="clip-path:url(#SVGID_00000093862875204210008320000008926586709944727953_);">
		<path class="st7" d="M90.2-462.2c6.9,49.1-7.5,98.7-25.5,144.9c-18,46.2-39.8,91.5-48.8,140.3C1.1-97.3,23.6-11.5,75.9,50.4
			c52.4,61.8,133.6,98.2,214.6,95.6c51.2-1.7,102.3-18,152.9-10.1c52,8.1,96.4,40.6,145.3,60c116.1,46.1,257.3,11.1,345-77.8
			c87.7-88.9,121.4-224.8,94.3-346.8c-27.1-121.9-111.2-228-219.1-290.9c-107.9-62.8-237.8-83.8-361.7-68.2
			C386.6-580,327-563.9,265.9-559c-61.1,4.9-125.9-2.7-176-37.9L1.8-570.6C50.1-559.7,83.3-511.3,90.2-462.2z"/>
		<path class="st8" d="M89.6-464.2c6.8,48.7-7.5,97.9-25.3,143.7c-17.8,45.9-39.5,90.8-48.4,139.1c-14.6,79,7.7,164.2,59.7,225.5
			c51.9,61.3,132.5,97.4,212.8,94.8c50.8-1.6,101.4-17.8,151.6-10c51.5,8,95.6,40.3,144.1,59.5c115.1,45.7,255.2,11,342.2-77.2
			c87-88.2,120.4-223,93.6-343.9c-26.8-120.9-110.2-226.2-217.3-288.5c-107.1-62.3-235.8-83.1-358.7-67.6
			c-60.3,7.6-119.4,23.6-179.9,28.4c-60.5,4.9-124.9-2.6-174.6-37.6L2-571.7C50-560.9,82.8-512.9,89.6-464.2z"/>
		<path class="st7" d="M861.4-87.3c9.2,54.8,31.5,107.5,65.6,151.4c67.4,86.7,179.1,137,288.6,129.9c11.6-0.7,23.4-2.1,35.1-3.7
			c61.5-8.2,124.2-23.3,179.4,2.4c46.9,21.8,76.8,68.6,119.1,98.4c55.3,38.9,129.8,45.2,194.2,24.5
			c64.3-20.7,118.9-66.3,158.7-120.9c13.8-18.9,26-38.9,38-59v-223H861.4z"/>
		<path class="st9" d="M869.4-88.3c9.1,54.2,31.1,106.1,64.8,149.5c66.5,85.6,176.8,135.3,285,128.3c11.5-0.7,23.1-2,34.7-3.6
			c60.8-8.1,122.7-23,177.2,2.4c46.3,21.6,75.9,67.8,117.7,97.1c54.6,38.4,128.2,44.7,191.8,24.2c63.5-20.5,117.4-65.4,156.7-119.4
			c13.6-18.7,25.6-38.4,37.6-58.3V-88.3H869.4z"/>
		<path class="st7" d="M559.6-119.1c14.7,13.7,31.7,24.7,50.6,32c34.2,13.2,72.8,15.8,103.9,35.3C755-26.1,774,23.3,784.3,70.5
			c10.3,47.2,15,96.8,38.2,139.2c48.2,87.9,168.1,118.1,263.1,86.2c63.3-21.2,116.1-64,158.7-116.1c21.4-26.1,40.1-54.6,56.4-83.9
			c36.6-66.2,63.5-139,113.7-195.6c6-6.8,12.6-13.3,19.5-19.5H559.6z"/>
		<path class="st10" d="M560.6-120.1c14.6,13.5,31.4,24.5,50.2,31.8c33.9,13.1,72.2,15.7,103,35c40.6,25.5,59.5,74.5,69.7,121.3
			c10.2,46.8,14.8,96,37.9,138c47.8,87.1,166.7,117.1,260.9,85.5c62.8-21,115.2-63.5,157.4-115.2c21.2-25.9,39.8-54.2,55.9-83.2
			c36.3-65.6,63-137.9,112.8-194c6-6.8,12.5-13.2,19.4-19.3H560.6z"/>
	</g>
	<g style="clip-path:url(#SVGID_00000093862875204210008320000008926586709944727953_);">
		<g>
			<path class="st6" d="M1412.6,494.9C1097.6,442.7,1223.1,19.9,802.5-19l0.4-4.8C1072.5,7,1116.4,167,1217.3,354.1
				c80.7,141.7,274.5,197.3,378.6,38.7c34.4-50,52.2-107.9,72.7-163.2C1705,97.3,1829.1-20.9,1993,10.8l-1,4.7
				c-161.6-31-282.2,85.4-318.2,215.6C1639.9,344.3,1564.5,507.7,1412.6,494.9z"/>
		</g>
		<g>
			<path class="st6" d="M1411.8,461.9C1116.3,413,1234.1,16.7,839.9-19.8l0.4-4.8c252.8,28.8,294,178.9,388.6,354.3
				c75.5,132.8,257.1,184.9,354.6,36.2c32.3-46.9,48.9-101.1,68.1-153c34.1-124.1,150.6-234.8,304.2-205.2l-1,4.7
				c-151.3-29-264.3,80-298.1,202C1625,320.8,1554.3,474,1411.8,461.9z"/>
		</g>
		<g>
			<path class="st6" d="M1411,429c-275.9-45.6-166-415.5-533.7-449.5l0.4-4.8c236,26.9,274.5,166.9,362.8,330.7
				c140.1,208.3,331,120.8,385.8-85.8C1661.1,93.4,1756.7-23,1918.8,4.9l-1,4.7c-141.2-27.1-246.5,74.7-278,188.5
				C1610.2,297.2,1544,440.2,1411,429z"/>
		</g>
		<g>
			<path class="st6" d="M1410.2,396.1C1153.9,353.7,1256,10.3,914.6-21.3l0.4-4.8c219.2,25,255,155,337,307.2
				c130,193.3,307,112,357.8-79.6C1642.3,84.2,1731.1-24,1881.7,2l-1,4.7c-131-25.1-228.7,69.3-257.9,174.9
				C1595.3,273.7,1533.8,406.5,1410.2,396.1z"/>
		</g>
		<g>
			<path class="st6" d="M1409.4,363.1C1172.7,323.9,1266.4,6.7,952-22.1l0.4-4.8c202.4,23.1,235.5,143.1,311.2,283.6
				c119.9,178.3,283,103.2,329.9-73.5c29.9-108.3,112-208.2,251.1-184.2l-1,4.7c-120.8-23.1-210.8,63.9-237.8,161.3
				C1580.4,250.1,1523.6,372.8,1409.4,363.1z"/>
		</g>
	</g>
</g>
</svg>
